<svg preserveAspectRatio="none" width="100%" height="100%" overflow="visible" style="display: block;" viewBox="0 0 90 90" fill="none" xmlns="http://www.w3.org/2000/svg">
<g id="noto:man-genie">
<path id="Vector" d="M38.3906 5.76562C38.3906 5.76562 37.5469 6.96094 35.9297 6.96094C35.0156 6.96094 33.8203 6.53906 32.4141 5.41406C31.0078 4.21875 30.4031 3.6 28.6875 3.02344C27.1617 2.51016 25.1367 2.65781 23.9766 3.72656C21.5156 6.25781 22.5703 8.64844 22.7813 9.28125C22.7813 9.28125 25.2422 12.5156 31.6406 12.5156C32.9766 12.5156 34.3125 12.3047 35.5078 11.6719C39.5156 9.49219 38.3906 5.76562 38.3906 5.76562Z" fill="var(--fill-0, #2D2D2D)"/>
<path id="Vector_2" d="M38.3906 5.76562C38.3906 5.76562 37.5469 6.96094 35.9297 6.96094C35.0156 6.96094 33.8203 6.53906 32.4141 5.41406C31.0078 4.21875 30.4031 3.6 28.6875 3.02344C27.1617 2.51016 25.1367 2.65781 23.9766 3.72656C21.5156 6.25781 22.5703 8.64844 22.7813 9.28125C22.7813 9.28125 25.2422 12.5156 31.6406 12.5156C32.9766 12.5156 34.3125 12.3047 35.5078 11.6719C39.5156 9.49219 38.3906 5.76562 38.3906 5.76562Z" fill="var(--fill-0, #0F3B7C)"/>
<path id="Vector_3" d="M38.3906 5.76562C38.3906 5.76562 37.5469 6.96094 35.9297 6.96094C35.0156 6.96094 22.5703 8.64844 22.7813 9.28125C22.7813 9.28125 25.2422 12.5156 31.6406 12.5156C32.9766 12.5156 34.3125 12.3047 35.5078 11.6719C39.5156 9.49219 38.3906 5.76562 38.3906 5.76562Z" fill="url(#paint0_radial_0_403)"/>
<path id="Vector_4" d="M32.4141 5.41406C31.0078 4.21875 30.4031 3.6 28.6875 3.02344C27.1617 2.51016 25.1367 2.65781 23.9766 3.72656C21.5156 6.25781 22.5703 8.64844 22.7813 9.28125C22.7813 9.28125 33.8203 6.53906 32.4141 5.41406Z" fill="url(#paint1_radial_0_403)"/>
<path id="Vector_5" d="M25.1016 4.57031H25.3828C26.9297 4.57031 28.125 5.83594 28.0547 7.38281V7.66406C28.0547 9.21094 26.7891 10.4062 25.2422 10.3359H24.9609C23.4141 10.3359 22.2188 9.07031 22.2188 7.52344V7.24219C22.2891 5.76563 23.5547 4.5 25.1016 4.57031Z" fill="url(#paint2_radial_0_403)"/>
<path id="Vector_6" d="M26.0859 7.45313C26.5519 7.45313 26.9297 7.07537 26.9297 6.60937C26.9297 6.14338 26.5519 5.76562 26.0859 5.76562C25.6199 5.76562 25.2422 6.14338 25.2422 6.60937C25.2422 7.07537 25.6199 7.45313 26.0859 7.45313Z" fill="var(--fill-0, white)"/>
<path id="Vector_7" d="M78.1664 61.3336C77.0344 62.1563 68.5687 63.5766 73.8422 60.6023C77.3086 58.6477 79.0945 52.1578 71.2547 50.1961C63.232 48.2062 54.6609 62.1984 53.4375 65.1305C50.5336 72.0844 46.5117 77.9273 38.2641 82.125C30.8883 85.8867 24.0047 86.2383 15.3914 82.0688C8.37422 78.6727 6.13828 72.2531 7.10156 63.8719C7.26437 62.402 7.49429 60.9403 7.79062 59.4914C8.76797 54.7453 9.72422 54.0984 8.24062 47.5734L21.0586 46.1461L23.2523 45.9L41.2594 43.8891C41.2594 48.6141 40.718 52.2 33.8484 58.8516C31.1203 61.4953 26.4375 63.7453 25.4813 67.2117C25.1648 68.3719 24.9539 69.6094 25.9875 71.1492C27.1687 72.9211 35.5078 77.1328 43.418 65.9039C44.2266 64.7578 48.7055 57.9586 49.9219 56.1234C52.9172 51.6023 56.1797 47.6156 61.1719 45.1266C78.75 36.3516 87.1312 54.8156 78.1664 61.3336Z" fill="url(#paint3_radial_0_403)"/>
<path id="Vector_8" d="M26.5711 55.9898C24.1242 58.2539 21.2555 60.0047 18.5766 61.9945C15.8977 63.9844 13.3383 66.2906 11.8477 69.2719C10.357 72.2531 10.118 76.043 11.9531 78.8273C12.7687 80.0648 15.1172 82.6453 21.1781 84.2695C21.1781 84.2695 11.7141 79.657 17.1281 71.8945C18.8438 69.4336 25.9031 65.3203 28.1813 63.3727C30.4594 61.425 29.9531 62.2195 32.0344 60.0609C34.4039 57.607 37.4344 53.9648 38.6648 50.7867C39.5297 48.5508 40.7531 44.9016 36.9703 44.9016C33.1875 44.9016 28.7367 53.993 26.5711 55.9898Z" fill="url(#paint4_linear_0_403)"/>
<path id="Vector_9" d="M64.0195 73.0406C63.5906 72.9 63.0984 72.7453 62.9719 72.4922C61.3125 69.1242 62.4516 65.3977 65.7492 63.4219C66.9094 62.7328 69.0328 62.107 70.5867 61.657C70.9594 61.5516 71.3039 61.4461 71.6062 61.3547C76.2398 59.9344 79.3055 57.7687 80.7117 54.9141C81.3727 53.5711 81.5133 52.5516 81.5063 51.5531C81.682 52.3125 81.8578 53.1492 81.8578 54.6891C81.8578 59.1539 79.2492 61.1367 76.4227 62.6062C74.8758 63.4148 73.2797 63.7172 71.5922 64.0336C69.9398 64.35 68.2242 64.6734 66.593 65.5172C64.9547 66.368 63.9211 67.4648 63.5344 68.7937C63.1688 70.0312 63.3656 71.4656 64.1109 73.0758C64.0758 73.0617 64.0477 73.0547 64.0195 73.0406Z" fill="url(#paint5_linear_0_403)"/>
<path id="Vector_10" d="M34.6148 83.7141C36.8297 81.5906 42.0328 76.282 44.0156 70.4531C48.6844 56.6789 50.6602 54.4711 53.6555 51.1172L53.7047 51.0609C57.0586 47.1445 60.9469 44.7258 64.9688 43.5938C61.4391 46.2445 59.1258 50.9133 57.1008 56.4469C55.0898 61.9594 52.8047 68.2172 48.0375 74.7352C45.0281 78.8484 39.8391 82.2164 34.6148 83.7141Z" fill="url(#paint6_linear_0_403)"/>
<path id="Vector_11" d="M34.6219 83.6578C45 76.6406 49.9219 64.6875 54.0141 53.9086C54.7453 52.0875 55.6102 50.3297 56.5875 48.6422C57.5648 46.9547 58.6547 45.3305 59.8148 43.7625C60.4195 42.9539 61.1086 42.1945 61.8609 41.4984C62.6273 40.8164 63.4641 40.1977 64.3641 39.6844C66.1781 38.6719 68.2523 38.0953 70.3336 38.0742C72.4219 38.0602 74.482 38.6016 76.3031 39.5648C78.1102 40.5422 79.7555 41.9414 80.775 43.8117C81.2953 44.7398 81.6047 45.8016 81.7383 46.8C81.8859 47.8125 81.9 48.8391 81.8016 49.8445C81.5766 51.8555 80.9016 53.8031 79.7625 55.4625C79.193 56.2852 78.4828 57.0234 77.7445 57.6492C77.0062 58.2891 76.2328 58.8656 75.4312 59.407C73.8281 60.4758 72.1406 61.4602 70.3055 62.0156C71.1914 61.65 72.0141 61.1648 72.8016 60.6375C73.5961 60.1172 74.3625 59.5477 75.0938 58.95C76.5352 57.7406 78.0187 56.4961 78.8906 54.907C79.7977 53.332 80.2828 51.525 80.3531 49.732C80.4305 47.9531 80.1352 46.0898 79.2703 44.6695C78.3844 43.207 76.9922 42.0328 75.4242 41.2453C73.8562 40.4578 72.0914 40.0641 70.3547 40.0992C68.618 40.1273 66.9094 40.6195 65.3906 41.4844C64.6383 41.9273 63.9352 42.4547 63.2742 43.0453C62.6344 43.657 62.0297 44.3109 61.4813 45.0211C60.3563 46.5047 59.3016 48.0586 58.3383 49.6617C58.3313 49.6758 58.3172 49.6969 58.3102 49.7109C56.9461 51.9891 55.8562 54.4289 54.9703 56.932C51.2719 67.4297 45.8508 76.5563 35.9437 83.025C35.5359 83.2922 35.107 83.5523 34.6219 83.6578Z" fill="var(--fill-0, #5CEAD6)"/>
<path id="Vector_12" d="M44.9859 48.3188L40.5703 48.2414L27.2602 48.0094L26.3883 47.9883H26.2617L24.8273 47.9602L24.0961 47.9531L23.2383 47.9391L22.282 47.918H21.9375L21.0234 47.8969L20.1727 47.8828L9.97734 47.7L7.10156 47.6508C7.95938 43.0594 9.97734 41.0344 12.2133 39.9164C14.1328 38.9531 16.2141 38.6578 17.8453 37.9828C18.0703 37.8984 18.2813 37.8 18.4852 37.6875C18.7805 37.5328 19.0547 37.357 19.3078 37.1531C19.3922 37.0828 19.4766 37.0055 19.5609 36.9211H19.568C19.568 36.9141 19.575 36.907 19.575 36.907C20.3063 36.1898 20.7703 35.1563 20.8195 33.5531L29.0742 33.1172C28.9758 34.9805 29.5875 36.1406 30.6211 36.9422C30.6703 36.9844 30.7195 37.0195 30.7687 37.0547C30.8883 37.1391 31.0148 37.2234 31.1414 37.3008C31.4578 37.4836 31.7953 37.6523 32.1609 37.807C32.3789 37.8914 32.5969 37.9758 32.8289 38.0531C33.0187 38.1234 33.2156 38.1867 33.4195 38.243C33.4477 38.257 33.4758 38.2641 33.5039 38.2711C33.6094 38.3063 33.7148 38.3344 33.8203 38.3695C33.8766 38.3836 33.9328 38.3977 33.9961 38.4117C35.1352 38.7352 36.3656 39.0094 37.582 39.382C37.7578 39.4383 37.9477 39.5016 38.1516 39.5719C38.5875 39.7125 39.0234 39.8813 39.4523 40.0641C39.6 40.1344 39.7336 40.1906 39.8531 40.2469C39.8953 40.2609 39.9375 40.282 39.9797 40.3031C42.5391 41.5547 44.6344 43.7273 44.9859 48.3188Z" fill="var(--fill-0, #039BE5)"/>
<path id="Vector_13" opacity="0.35" d="M32.9555 61.3828C32.5969 61.9031 32.168 62.0648 31.7883 62.0859C31.3453 62.107 30.9727 61.9242 30.8883 61.875C30.8813 61.875 30.8813 61.868 30.8742 61.868C30.8742 61.868 22.5914 56.693 24.0961 47.9531C24.6445 44.7398 26.5219 41.0414 30.6211 36.9422C30.6703 36.9844 30.7195 37.0195 30.7687 37.0547C30.8883 37.1391 31.0148 37.2234 31.1414 37.3008C31.4578 37.4836 31.7953 37.6523 32.1609 37.807C31.9641 38.0461 31.4859 38.6086 30.9094 39.3539C28.6945 42.1594 26.9297 45.007 26.3883 47.9883C26.1703 49.1766 26.1492 50.3859 26.3742 51.6305C27.0984 55.582 29.7703 58.3031 31.3383 60.0047C31.9992 60.6586 32.9555 61.3688 32.9555 61.3828Z" fill="var(--fill-0, #212121)"/>
<path id="Vector_14" d="M39.7828 51.6867C39.3117 52.6922 38.6367 53.7047 37.9547 54.682C37.8352 54.8508 37.7227 55.0195 37.6031 55.1883L37.3781 55.5117C36.4852 56.7844 34.7484 59.3719 33.5531 61.1578L32.6742 62.4656L32.4984 62.7258C32.3227 62.5781 32.0836 62.3602 31.7883 62.0859C30.1148 60.4688 26.8523 56.7141 26.2477 51.4828V51.4687C26.1352 50.5055 26.1211 49.5422 26.2055 48.5648C26.2195 48.375 26.2477 48.1852 26.2617 47.9883C26.6344 43.2352 28.2938 40.8797 31.1414 37.3008C31.4578 37.4836 31.7953 37.6523 32.1609 37.807C32.3789 37.8914 32.5969 37.9758 32.8289 38.0531C33.0188 38.1234 36.3656 39.0094 37.582 39.382C37.7578 39.4383 39.9375 40.282 39.9727 40.2961L39.9797 40.3031C42.4758 46.3922 39.8953 51.4477 39.7828 51.6867Z" fill="url(#paint7_linear_0_403)"/>
<path id="Vector_15" d="M33.5531 61.1578L32.6742 62.4656L32.4984 62.7258L32.2875 63.0352C31.9922 62.8172 31.493 62.4234 30.8883 61.875C30.8813 61.875 30.8813 61.868 30.8742 61.868C28.343 59.5758 23.9836 54.5836 24.8273 47.9602C25.2492 44.6766 26.9437 41.0062 30.7687 37.0547C30.8883 37.1391 31.0148 37.2234 31.1414 37.3008C31.4578 37.4836 31.7953 37.6523 32.1609 37.807C32.3789 37.8914 32.5969 37.9758 32.8289 38.0531C32.5898 38.3414 32.2172 38.7984 31.7813 39.3539C29.5664 42.1664 27.7945 45.0211 27.2602 48.0094C27.0422 49.1906 27.0211 50.393 27.2461 51.6305C27.9703 55.582 30.6422 58.3031 32.2102 60.0047C32.6531 60.4406 33.2227 60.8977 33.5531 61.1578Z" fill="var(--fill-0, #FCB316)"/>
<path id="Vector_16" opacity="0.35" d="M23.2383 47.9391C23.1539 48.7688 22.9641 49.6758 22.6266 50.6672C21.3047 54.5133 19.0617 60.9258 7.49531 61.0664C7.50234 61.0031 7.51641 60.9469 7.52344 60.8906C7.54453 60.7711 7.56562 60.6516 7.58672 60.5391C7.65703 60.1664 7.72031 59.8219 7.79062 59.4914C7.95717 59.2985 8.16045 59.1408 8.38861 59.0273C8.61677 58.9138 8.86524 58.8469 9.11953 58.8305C16.8469 58.0219 19.2516 54.0492 20.4539 50.5336C20.7703 49.6125 20.9461 48.7336 21.0234 47.8969C21.0867 47.2852 21.0938 46.6945 21.0586 46.1461C21.0023 45.0703 20.7984 44.1352 20.5734 43.3828C20.5312 43.2352 20.475 43.0242 20.4047 42.7711C19.9969 41.2594 19.4414 39.6844 19.2234 39.2203C18.9773 38.7 18.675 38.0812 18.4852 37.6875C18.7805 37.5328 19.0547 37.357 19.3078 37.1531C19.3922 37.0828 19.4766 37.0055 19.5609 36.9211H19.568C19.575 36.9281 19.5891 36.9352 19.5961 36.9492C21.3117 38.4117 22.2891 41.7727 22.5914 42.7781C22.8516 43.65 23.1469 44.6766 23.2523 45.9C23.3086 46.5258 23.3156 47.2008 23.2383 47.9391Z" fill="var(--fill-0, #212121)"/>
<path id="Vector_17" d="M21.9375 47.918C21.9164 48.1148 21.8883 48.3188 21.8672 48.5227C21.6422 50.5477 20.8055 52.2703 20.4891 52.9312C18.8508 56.3484 15.5602 59.9625 7.58672 60.5391C6.85547 60.5953 6.08906 60.6234 5.27344 60.6234C5.18906 60.6164 5.09766 60.6164 5.01328 60.6164C5.37188 60.1594 5.80781 59.5055 6.26484 58.718H6.27188C7.11167 57.2706 7.84033 55.7616 8.45156 54.2039C8.95781 52.8961 9.36563 51.5461 9.55547 50.3156L9.56953 50.2172L9.59063 50.1047C9.71719 49.2891 9.83672 48.4875 9.97734 47.7C10.3359 45.5977 12.0375 40.3242 12.2133 39.9164C14.1328 38.9531 16.2141 38.6578 17.8453 37.9828C18.0703 37.8984 18.2812 37.8 18.4852 37.6875C18.7805 37.5328 19.0547 37.357 19.3078 37.1531C20.3062 38.6508 22.3453 44.0016 21.9375 47.918Z" fill="url(#paint8_linear_0_403)"/>
<path id="Vector_18" d="M22.282 47.918C22.1977 48.9094 21.9867 49.9781 21.607 51.0961C20.3695 54.7242 17.5852 60.1875 7.52344 60.8906C6.81328 60.9398 6.06094 60.968 5.27344 60.968C5.06953 60.968 4.87266 60.968 4.66875 60.9609C4.80234 60.8133 5.80781 59.5336 6.26484 58.718H6.27188C6.65859 58.718 7.28438 58.7953 8.27578 58.7109C16.0031 57.9023 18.4078 53.9297 19.6102 50.4141C19.9125 49.5352 20.0883 48.6844 20.1727 47.8828C20.3695 46.0336 20.0813 44.4234 19.7297 43.2633C19.6875 43.1156 19.6313 42.9047 19.5609 42.6516C19.1531 41.1398 18.5977 39.5648 18.3797 39.1008C18.2109 38.7422 18.0141 38.3344 17.8453 37.9828C18.0703 37.8984 18.2813 37.8 18.4852 37.6875C18.7805 37.5328 19.0547 37.357 19.3078 37.1531C19.3922 37.0828 19.4766 37.0055 19.5609 36.9211H19.568C19.568 36.9141 19.575 36.907 19.575 36.907L19.5961 36.9492C20.8195 38.7703 21.4945 41.8078 21.7477 42.6516C22.1203 43.9031 22.493 45.7383 22.282 47.918Z" fill="var(--fill-0, #FCB316)"/>
<path id="Vector_19" opacity="0.35" d="M39.7828 51.6867C39.3117 52.6922 38.6367 53.7047 37.9547 54.682C33.7711 54.6187 29.3273 53.325 26.7047 51.6797L26.2477 51.4828L25.5516 51.1805C24.3984 51.5672 22.5984 52.2703 20.4891 52.9313C16.8328 54.0773 12.2344 55.1039 8.45156 54.2039C8.95781 52.8961 9.36563 51.5461 9.55547 50.3156L9.56953 50.2172C11.2359 48.9867 18.4219 48.4945 18.7172 48.4945C18.8086 48.4945 20.0742 48.5086 21.8672 48.5227C23.1258 48.5367 24.6445 48.5508 26.2055 48.5648C30.5227 48.607 39.8953 51.4477 39.7828 51.6867Z" fill="var(--fill-0, #212121)"/>
<path id="Vector_20" d="M44.3461 44.9086C44.6133 45.225 46.2164 46.7227 46.2023 48.2555C46.1883 49.5141 45.668 51.1172 43.9172 51.968C39.2836 54.232 30.6633 52.425 26.7117 49.9289C21.7969 46.8352 18.457 45.0141 18.457 45.0141C14.1398 45.9281 10.5469 43.7906 10.5469 43.7906C10.5469 43.7906 5.85703 44.6906 5.07656 44.6695C3.84609 44.6414 3.54375 42.982 4.56328 42.6305C6.57422 41.9344 11.3836 39.1008 13.2539 39.2062C14.2734 39.2625 24.5953 41.2453 27.5625 42.0891C28.5187 42.3633 34.2633 43.3898 34.2633 43.3898" fill="var(--fill-0, #4FC3F7)"/>
<path id="Vector_21" d="M27.7664 42.1453C27.7664 42.1453 36.7734 39.1641 38.8055 39.6141C43.882 40.7391 46.3008 44.7117 46.3781 45.4359C46.0969 46.2867 44.2758 46.8352 42.4758 46.3922C40.0711 45.8016 37.35 44.0367 34.2492 43.3898C34.2492 43.3898 27.907 42.2719 27.7664 42.1453Z" fill="var(--fill-0, #4FC3F7)"/>
<path id="Vector_22" d="M46.3781 45.4359C46.3008 45.8648 45.9211 46.2023 45.5414 46.4203C45.1547 46.6453 44.7258 46.7789 44.2898 46.8703C43.4109 47.025 42.4898 46.9969 41.5969 46.6734C40.6898 46.3711 39.9797 45.7383 39.3469 45.232C38.7211 44.6977 38.1656 44.325 37.568 44.3039L37.3289 44.2969H37.0055C36.7875 44.2969 36.5625 44.3039 36.3516 44.2969C35.9156 44.2828 35.4867 44.2617 35.0578 44.2125C34.207 44.1 33.3703 43.9805 32.5477 43.7836C30.9023 43.3969 29.2711 42.9328 27.7664 42.1383C29.4328 42.3633 31.0852 42.525 32.7234 42.7008C33.5461 42.7641 34.3547 42.8555 35.1703 42.8836C35.5711 42.8977 35.9789 42.9258 36.3727 42.9188C36.5766 42.9258 36.7664 42.9117 36.9633 42.9047L37.2656 42.8977H37.6594C38.1867 42.9398 38.7141 43.1227 39.1359 43.3828C39.5648 43.643 39.9164 43.9383 40.2258 44.2266C40.8375 44.8172 41.3789 45.3234 42.0328 45.6609C42.6727 45.9844 43.4602 46.1672 44.2336 46.1813C44.6273 46.1953 45.0211 46.1531 45.4008 46.0617C45.7594 45.9563 46.1602 45.8016 46.3781 45.4359Z" fill="var(--fill-0, #0277BD)"/>
<path id="Vector_23" d="M25.8258 49.3805C24.7992 50.1398 15.0961 53.8523 8.45156 52.3617C6.91172 52.0172 4.83047 51.5883 4.34531 49.7672C3.75469 47.5312 6.39141 44.5359 6.39141 44.5359L10.5398 43.8047L13.0078 44.7328C13.7531 45.0141 14.5406 45.1406 15.3352 45.1195L18.45 45.0211C18.45 45.0141 26.1914 49.3805 25.8258 49.3805Z" fill="var(--fill-0, #4FC3F7)"/>
<path id="Vector_24" d="M43.9102 51.968C41.8922 53.1141 39.4664 53.4164 37.1531 53.3742C34.8188 53.325 32.4984 52.9313 30.2555 52.2352C29.1375 51.8766 28.0266 51.4547 26.9719 50.8781C26.4305 50.5828 25.9523 50.2805 25.4672 49.9781L24.0047 49.0922C22.0711 47.8898 20.0953 46.7227 18.1406 45.5766L18.5766 45.6398C17.8664 45.7594 17.1492 45.8508 16.432 45.8367C15.7148 45.8297 15.0047 45.7523 14.3086 45.6187C13.6125 45.4852 12.9234 45.3023 12.2695 45.0422C11.6086 44.7891 10.9828 44.5008 10.357 44.1141L10.6102 44.1562C9.68906 44.2828 8.775 44.3953 7.84688 44.5008L6.46172 44.6344C5.99766 44.6625 5.53359 44.7047 5.06953 44.6766C5.52656 44.6273 5.97656 44.5078 6.42656 44.4094L7.77656 44.093L10.4695 43.4461L10.582 43.418L10.7297 43.4883C11.2922 43.7695 11.932 44.0016 12.5578 44.1773C13.1906 44.3531 13.8305 44.4937 14.4773 44.5711C15.1242 44.6555 15.7711 44.6836 16.418 44.6484C17.0648 44.6414 17.6977 44.5289 18.3234 44.4023L18.5484 44.3602L18.7594 44.4656C20.8125 45.5344 22.7813 46.7086 24.75 47.8898L26.2125 48.8039C26.6977 49.1133 27.1828 49.4227 27.6469 49.6828C28.6031 50.2031 29.6227 50.6531 30.6703 51.0328C31.725 51.3984 32.8008 51.7078 33.8977 51.968C34.9945 52.207 36.1055 52.4109 37.2234 52.5305C39.4383 52.7484 41.7375 52.7484 43.9102 51.968Z" fill="var(--fill-0, #0277BD)"/>
<path id="Vector_25" d="M14.625 28.5961C13.8797 28.4344 12.5719 28.0266 11.6648 27.0773C10.0055 25.3266 9.49922 21.8109 9.37266 20.5312C10.2937 20.6156 12.382 20.9391 13.4578 22.2117L14.625 28.5961Z" fill="var(--fill-0, #039BE5)"/>
<path id="Vector_26" d="M12.6844 27.0141C12.5859 28.1672 12.0094 29.1305 11.1375 29.1445C10.2656 29.1656 9.54141 28.2305 9.52031 27.0703C9.50625 26.1914 9.89297 25.432 10.4625 25.1086L10.793 25.7906C10.5047 25.9875 10.2586 26.4586 10.2727 27.0633C10.2867 27.8648 10.7297 28.4133 11.1234 28.4063C11.5172 28.3992 11.9391 27.8367 11.932 27.0352C11.925 26.3742 11.8336 26.1703 11.6648 25.8047C11.3906 25.1859 11.8477 24.7078 12.2836 25.3125C12.2836 25.3125 12.7758 25.9031 12.6844 27.0141Z" fill="var(--fill-0, #FCB316)"/>
<path id="Vector_27" d="M36.0562 22.2117C37.132 20.932 39.2203 20.6156 40.1414 20.5312C40.0148 21.8109 39.5086 25.3266 37.8492 27.0773C36.9422 28.0336 35.6344 28.4414 34.8891 28.5961L36.0562 22.2117Z" fill="var(--fill-0, #039BE5)"/>
<path id="Vector_28" d="M23.6813 36.6539L24.5391 36.7102H25.6781C32.0133 36.2883 36.2531 30.4242 36.3867 21.143C36.5203 11.9109 30.832 7.25625 24.975 7.17187C19.118 7.0875 13.2891 11.5664 13.1555 20.7984C13.0148 30.0938 17.6695 36.1687 23.6813 36.6539Z" fill="var(--fill-0, #4FC3F7)"/>
<path id="Vector_29" d="M26.093 26.8523C26.0578 26.8383 26.0227 26.8313 25.9875 26.8242L23.5828 26.7891C23.5477 26.7961 23.5125 26.8031 23.4703 26.8172C23.2523 26.9016 23.1258 27.1266 23.2242 27.3656C23.3227 27.6047 23.7937 28.2867 24.757 28.3008C25.7203 28.3148 26.2125 27.6469 26.318 27.4078C26.4234 27.1687 26.3039 26.9437 26.093 26.8523Z" fill="var(--fill-0, #0277BD)"/>
<path id="Vector_30" d="M27.6398 29.6227C26.55 30.2484 22.9992 30.1992 21.9305 29.5383C21.3117 29.1586 20.6719 29.7141 20.918 30.2836C21.1641 30.8391 23.0836 32.1609 24.757 32.182C26.4305 32.2031 28.3641 30.9445 28.6242 30.3961C28.8844 29.8336 28.2656 29.2641 27.6398 29.6227Z" fill="var(--fill-0, #4E342E)"/>
<path id="Vector_31" d="M37.2305 25.3125C37.6664 24.7078 38.1234 25.1859 37.8492 25.8047C37.6805 26.1703 37.5891 26.3742 37.582 27.0352C37.575 27.8367 37.9969 28.3992 38.3906 28.4063C38.7844 28.4133 39.2273 27.8648 39.2414 27.0633C39.2555 26.4586 39.0094 25.9875 38.7211 25.7906L39.0516 25.1086C39.6211 25.432 40.0078 26.1914 39.9938 27.0703C39.9727 28.2305 39.2484 29.1656 38.3766 29.1445C37.5047 29.1305 36.9281 28.1672 36.8297 27.0141C36.7383 25.9031 37.2305 25.3125 37.2305 25.3125Z" fill="var(--fill-0, #FCB316)"/>
<g id="Group">
<path id="Vector_32" d="M19.1883 25.2984C20.1125 25.2984 20.8617 24.5492 20.8617 23.625C20.8617 22.7008 20.1125 21.9516 19.1883 21.9516C18.2641 21.9516 17.5148 22.7008 17.5148 23.625C17.5148 24.5492 18.2641 25.2984 19.1883 25.2984Z" fill="var(--fill-0, #212121)"/>
<path id="Vector_33" d="M30.3539 25.2984C31.2781 25.2984 32.0273 24.5492 32.0273 23.625C32.0273 22.7008 31.2781 21.9516 30.3539 21.9516C29.4297 21.9516 28.6805 22.7008 28.6805 23.625C28.6805 24.5492 29.4297 25.2984 30.3539 25.2984Z" fill="var(--fill-0, #212121)"/>
</g>
<path id="Vector_34" d="M81.7313 79.8539C77.8078 79.2281 78.1453 78.0258 77.7727 76.9078L74.025 75.8109C73.1672 76.5492 72.3516 78.082 69.1242 76.507C68.1328 76.0219 64.7859 73.1883 64.7859 73.1883L62.2617 72.5484C62.5852 72.8438 65.3344 76.3805 67.6758 79.3406C70.6008 83.0461 72.3516 83.7352 73.6383 84.1078C75.5648 84.6703 77.8008 84.3891 77.8008 84.3891C77.8008 84.3891 81.5555 84.7969 84.1289 83.8547C86.8008 82.8773 88.0172 80.4094 88.0172 80.4094C88.0172 80.4094 83.5031 80.0227 81.7313 79.8539ZM83.707 82.7086C82.7367 83.0602 81.5555 83.2008 80.5148 83.243C81.2783 82.6834 81.9155 81.9695 82.3852 81.1477C83.1023 81.2109 84.15 81.3094 85.6969 81.443C85.1906 81.9281 84.5297 82.4133 83.707 82.7086Z" fill="url(#paint9_linear_0_403)"/>
<path id="Vector_35" d="M85.6969 81.45C85.1906 81.9352 84.5297 82.4133 83.707 82.7156C82.7367 83.0672 81.5555 83.2078 80.5148 83.25C81.2742 82.6945 82.0125 81.7313 82.3852 81.1547C80.2758 81.2672 77.5547 81.0562 74.7984 80.2477C69.6234 78.7289 65.25 73.9687 64.5047 73.118L62.2617 72.5484C62.5852 72.8438 65.3344 76.3805 67.6758 79.3406C69.6516 81.8367 71.0859 82.9617 72.2109 83.5453C69.8133 83.468 68.3859 84.9305 68.3859 84.9305L77.6461 87.6445C77.6461 87.6445 77.2313 85.6266 75.143 84.3961C76.5703 84.5508 77.8008 84.3961 77.8008 84.3961C77.8008 84.3961 81.5555 84.8039 84.1289 83.8617C86.8008 82.8844 88.0172 80.4164 88.0172 80.4164L85.6969 81.45Z" fill="url(#paint10_radial_0_403)"/>
<path id="Vector_36" d="M76.1766 73.7859L73.8773 75.9797L77.85 77.1469L76.7953 73.9969L77.6109 73.3289C77.843 73.1391 77.9625 72.8508 77.9344 72.5555L77.7867 70.8539C77.7803 70.7784 77.7517 70.7065 77.7046 70.6472C77.6574 70.5879 77.5938 70.5438 77.5217 70.5205C77.4496 70.4972 77.3722 70.4958 77.2993 70.5163C77.2263 70.5368 77.1611 70.5785 77.1117 70.6359L75.9797 71.9367C75.7617 72.1828 75.6984 72.5344 75.818 72.8438L76.1766 73.7859Z" fill="url(#paint11_radial_0_403)"/>
<path id="Vector_37" d="M77.3719 86.8992L69.0398 84.4523L70.0805 83.9039L76.7672 85.8656L77.3719 86.8992Z" fill="url(#paint12_radial_0_403)"/>
<path id="Vector_38" d="M21.6562 20.9531C21.4453 21.1641 21.0937 21.0234 20.8125 20.8828C20.1094 20.6016 19.5469 20.3906 18.7734 20.3203C18.2109 20.3203 17.3672 20.3906 16.7344 20.6016C16.1719 20.7422 16.5234 19.8984 17.2266 19.4063C17.7187 19.0547 18.2109 18.9141 19.2656 18.9141C20.1797 18.9141 21.1641 19.2656 21.6562 19.6172C22.0078 20.0391 22.0078 20.6719 21.6562 20.9531ZM27.9141 20.9531C28.125 21.1641 28.4766 21.0234 28.7578 20.8828C29.4609 20.6016 30.0234 20.3906 30.7969 20.3203C31.3594 20.3203 32.2031 20.3906 32.8359 20.6016C33.3984 20.7422 33.0469 19.8984 32.3437 19.4063C31.8516 19.0547 31.3594 18.9141 30.3047 18.9141C29.3906 18.9141 28.4062 19.2656 27.9141 19.6172C27.5625 20.0391 27.5625 20.6719 27.9141 20.9531Z" fill="var(--fill-0, #01579B)"/>
</g>
<defs>
<radialGradient id="paint0_radial_0_403" cx="0" cy="0" r="1" gradientUnits="userSpaceOnUse" gradientTransform="translate(29.6663 7.54592) scale(9.22008 6.08341)">
<stop offset="0.611" stop-color="#00838F" stop-opacity="0"/>
<stop offset="1" stop-color="#00838F"/>
</radialGradient>
<radialGradient id="paint1_radial_0_403" cx="0" cy="0" r="1" gradientTransform="matrix(4.9978 3.00603 -2.88588 4.79775 30.0691 8.5555)" gradientUnits="userSpaceOnUse">
<stop offset="0.611" stop-color="#00838F" stop-opacity="0"/>
<stop offset="1" stop-color="#00838F"/>
</radialGradient>
<radialGradient id="paint2_radial_0_403" cx="0" cy="0" r="1" gradientTransform="matrix(4.17221 0.0738629 -0.072611 4.09793 27.2253 6.44229)" gradientUnits="userSpaceOnUse">
<stop stop-color="#FFEB3B"/>
<stop offset="1" stop-color="#FBAA19"/>
</radialGradient>
<radialGradient id="paint3_radial_0_403" cx="0" cy="0" r="1" gradientUnits="userSpaceOnUse" gradientTransform="translate(23.168 79.4588) scale(43.0537)">
<stop stop-color="#29B6F6"/>
<stop offset="1" stop-color="#0277BD"/>
</radialGradient>
<linearGradient id="paint4_linear_0_403" x1="33.6705" y1="57.5951" x2="15.8548" y2="77.0745" gradientUnits="userSpaceOnUse">
<stop stop-color="#005584" stop-opacity="0"/>
<stop offset="0.841" stop-color="#005584"/>
</linearGradient>
<linearGradient id="paint5_linear_0_403" x1="62.2167" y1="62.3159" x2="81.8578" y2="62.3159" gradientUnits="userSpaceOnUse">
<stop stop-color="#54CCBE"/>
<stop offset="0.234" stop-color="#45CABA"/>
<stop offset="0.681" stop-color="#1FC4AE"/>
<stop offset="1" stop-color="#00BFA5"/>
</linearGradient>
<linearGradient id="paint6_linear_0_403" x1="44.486" y1="77.5385" x2="54.5407" y2="51.2227" gradientUnits="userSpaceOnUse">
<stop stop-color="#00AB94"/>
<stop offset="0.706" stop-color="#00BFA5"/>
</linearGradient>
<linearGradient id="paint7_linear_0_403" x1="26.1513" y1="50.0133" x2="41.0639" y2="50.0133" gradientUnits="userSpaceOnUse">
<stop offset="0.096" stop-color="#00AB94"/>
<stop offset="0.449" stop-color="#00BFA5"/>
</linearGradient>
<linearGradient id="paint8_linear_0_403" x1="21.9375" y1="48.8883" x2="4.96055" y2="48.8883" gradientUnits="userSpaceOnUse">
<stop offset="0.096" stop-color="#00AB94"/>
<stop offset="0.447" stop-color="#00BFA5"/>
</linearGradient>
<linearGradient id="paint9_linear_0_403" x1="74.5966" y1="78.0764" x2="71.7912" y2="86.3311" gradientUnits="userSpaceOnUse">
<stop stop-color="#00AB94"/>
<stop offset="0.579" stop-color="#00BFA5"/>
</linearGradient>
<radialGradient id="paint10_radial_0_403" cx="0" cy="0" r="1" gradientTransform="matrix(5.94889 -1.42269 -1.33034 -5.56233 77.0728 80.3744)" gradientUnits="userSpaceOnUse">
<stop offset="0.272" stop-color="#FEBC12"/>
<stop offset="0.5" stop-color="#FEA709"/>
<stop offset="0.809" stop-color="#FF9000"/>
</radialGradient>
<radialGradient id="paint11_radial_0_403" cx="0" cy="0" r="1" gradientUnits="userSpaceOnUse" gradientTransform="translate(77.3826 71.5561) rotate(16.333) scale(2.6543 2.6543)">
<stop stop-color="#FEBC12"/>
<stop offset="1" stop-color="#FF8F00"/>
</radialGradient>
<radialGradient id="paint12_radial_0_403" cx="0" cy="0" r="1" gradientUnits="userSpaceOnUse" gradientTransform="translate(73.325 85.2847) rotate(16.333) scale(3.08391 3.0839)">
<stop stop-color="#FEF59F"/>
<stop offset="0.904" stop-color="#FAC537"/>
<stop offset="1" stop-color="#F9BF2C"/>
</radialGradient>
</defs>
</svg>
