<svg preserveAspectRatio="none" width="100%" height="100%" overflow="visible" style="display: block;" viewBox="0 0 4 4" fill="none" xmlns="http://www.w3.org/2000/svg">
<g id="qlementine-icons:stars-16" clip-path="url(#clip0_0_395)">
<path id="Vector" d="M2.31364 1.84933L2.47506 2.4096L2.63648 1.84933C2.67701 1.7086 2.69739 1.63813 2.73723 1.58013C2.77237 1.5292 2.81835 1.48575 2.87225 1.45254C2.93316 1.4149 3.00773 1.39586 3.15711 1.35734L3.75 1.2048L3.15711 1.05226C3.0082 1.01396 2.93385 0.994697 2.87225 0.957054C2.81835 0.923846 2.77237 0.880392 2.73723 0.829461C2.69739 0.771902 2.67724 0.701431 2.63648 0.560269L2.47506 0L2.31364 0.560269C2.27311 0.700993 2.25273 0.771465 2.21289 0.829461C2.17775 0.880392 2.13177 0.923846 2.07787 0.957054C2.01696 0.994697 1.94239 1.01374 1.79301 1.05226L1.20012 1.2048L1.79301 1.35734C1.94192 1.39564 2.0165 1.4149 2.07787 1.45254C2.13177 1.48575 2.17775 1.5292 2.21289 1.58013C2.25273 1.63769 2.27287 1.70816 2.31364 1.84933Z" fill="var(--fill-0, white)"/>
</g>
<defs>
<clipPath id="clip0_0_395">
<rect width="4" height="4" fill="white"/>
</clipPath>
</defs>
</svg>
