<svg preserveAspectRatio="none" width="100%" height="100%" overflow="visible" style="display: block;" viewBox="0 0 10 10" fill="none" xmlns="http://www.w3.org/2000/svg">
<g id="qlementine-icons:stars-16">
<path id="Vector" d="M5.78409 4.62332L6.18765 6.02399L6.59121 4.62332C6.69253 4.27151 6.74348 4.09533 6.84307 3.95034C6.93092 3.82301 7.04588 3.71437 7.18062 3.63136C7.33289 3.53725 7.51933 3.48965 7.89278 3.39335L9.375 3.01199L7.89278 2.63064C7.52049 2.53489 7.33463 2.48674 7.18062 2.39263C7.04588 2.30962 6.93092 2.20098 6.84307 2.07365C6.74348 1.92976 6.69311 1.75358 6.59121 1.40067L6.18765 0L5.78409 1.40067C5.68277 1.75248 5.63181 1.92866 5.53223 2.07365C5.44438 2.20098 5.32942 2.30962 5.19467 2.39263C5.0424 2.48674 4.85596 2.53434 4.48251 2.63064L3.00029 3.01199L4.48251 3.39335C4.85481 3.4891 5.04124 3.53725 5.19467 3.63136C5.32942 3.71437 5.44438 3.82301 5.53223 3.95034C5.63181 4.09423 5.68219 4.27041 5.78409 4.62332Z" fill="var(--fill-0, #F6A800)"/>
</g>
</svg>
